<?xml version="1.0" standalone="no"?><!DOCTYPE svg PUBLIC "-//W3C//DTD SVG 1.1//EN" "http://www.w3.org/Graphics/SVG/1.1/DTD/svg11.dtd"><svg t="1601908695686" class="icon" viewBox="0 0 1024 1024" version="1.1" xmlns="http://www.w3.org/2000/svg" p-id="1374" xmlns:xlink="http://www.w3.org/1999/xlink" width="200" height="200"><defs><style type="text/css">:not(select) {  }
</style></defs><path d="M504.832 517.12m-474.112 0a474.112 474.112 0 1 0 948.224 0 474.112 474.112 0 1 0-948.224 0Z" fill="#FFFFFF" p-id="1375"></path><path d="M504.832 1007.616C234.496 1007.616 15.36 788.48 15.36 518.144S234.496 28.672 504.832 28.672s489.472 219.136 489.472 489.472c0 269.312-219.136 489.472-489.472 489.472z m0-949.248C251.904 58.368 46.08 264.192 46.08 517.12c0 252.928 205.824 458.752 458.752 458.752s458.752-205.824 458.752-458.752C963.584 264.192 757.76 58.368 504.832 58.368z" fill="#0F0F0F" p-id="1376"></path><path d="M494.592 137.216C275.456 154.624 112.64 346.112 131.072 565.248" fill="#FFFFFF" p-id="1377"></path><path d="M131.072 580.608c-8.192 0-14.336-6.144-15.36-14.336C97.28 339.968 266.24 140.288 493.568 121.856c8.192-1.024 16.384 5.12 16.384 14.336 1.024 8.192-5.12 15.36-14.336 16.384-209.92 17.408-366.592 201.728-349.184 411.648 1.024 8.192-5.12 15.36-14.336 16.384h-1.024z" fill="#0F0F0F" p-id="1378"></path><path d="M309.248 816.128l271.36-408.576c27.648-40.96 84.992-46.08 119.808-11.264l57.344 58.368c39.936 40.96 31.744 107.52-16.384 137.216L337.92 845.824c-18.432 12.288-40.96-10.24-28.672-29.696z" fill="#F49227" p-id="1379"></path><path d="M326.656 865.28c-9.216 0-18.432-4.096-25.6-11.264-12.288-12.288-14.336-30.72-4.096-46.08L568.32 399.36c15.36-23.552 40.96-37.888 68.608-40.96 27.648-3.072 55.296 7.168 74.752 27.648l57.344 58.368c22.528 22.528 32.768 53.248 28.672 84.992-4.096 31.744-21.504 59.392-48.128 75.776L346.112 859.136c-6.144 4.096-12.288 6.144-19.456 6.144zM645.12 389.12h-6.144c-18.432 2.048-35.84 11.264-46.08 27.648L322.56 825.344c-2.048 3.072-1.024 6.144 1.024 7.168 1.024 1.024 4.096 3.072 7.168 1.024l402.432-252.928c18.432-12.288 31.744-31.744 33.792-53.248 3.072-22.528-5.12-44.032-20.48-60.416l-57.344-58.368C677.888 396.288 661.504 389.12 645.12 389.12zM309.248 816.128z" fill="#0F0F0F" p-id="1380"></path><path d="M408.576 253.952c0 18.432-15.36 33.792-33.792 33.792-18.432 0-33.792-15.36-33.792-33.792s15.36-33.792 33.792-33.792c18.432 0 33.792 15.36 33.792 33.792z" fill="#5CEA8B" p-id="1381"></path><path d="M374.784 297.984c-24.576 0-44.032-19.456-44.032-44.032s19.456-44.032 44.032-44.032 44.032 19.456 44.032 44.032-20.48 44.032-44.032 44.032z m0-67.584c-13.312 0-23.552 10.24-23.552 23.552 0 13.312 10.24 23.552 23.552 23.552 13.312 0 23.552-10.24 23.552-23.552 0-12.288-11.264-23.552-23.552-23.552z" fill="#0F0F0F" p-id="1382"></path><path d="M408.576 404.48m-38.912 0a38.912 38.912 0 1 0 77.824 0 38.912 38.912 0 1 0-77.824 0Z" fill="#5CEA8B" p-id="1383"></path><path d="M408.576 453.632c-27.648 0-49.152-22.528-49.152-49.152s22.528-49.152 49.152-49.152 49.152 22.528 49.152 49.152-22.528 49.152-49.152 49.152z m0-78.848c-16.384 0-28.672 13.312-28.672 28.672 0 16.384 13.312 28.672 28.672 28.672s28.672-13.312 28.672-28.672c0-15.36-13.312-28.672-28.672-28.672z" fill="#0F0F0F" p-id="1384"></path><path d="M297.984 397.312c-17.408 7.168-36.864 0-44.032-17.408-7.168-17.408 0-36.864 17.408-44.032 17.408-7.168 36.864 0 44.032 17.408 7.168 17.408 0 36.864-17.408 44.032z" fill="#5CEA8B" p-id="1385"></path><path d="M284.672 410.624c-17.408 0-32.768-10.24-39.936-26.624-9.216-22.528 1.024-48.128 22.528-57.344 22.528-9.216 48.128 1.024 57.344 22.528 5.12 11.264 5.12 22.528 0 33.792s-12.288 19.456-23.552 24.576c-5.12 2.048-10.24 3.072-16.384 3.072z m0-67.584c-3.072 0-6.144 1.024-9.216 2.048-12.288 5.12-17.408 19.456-12.288 30.72 5.12 12.288 19.456 17.408 30.72 12.288 6.144-2.048 10.24-7.168 12.288-13.312 2.048-6.144 2.048-12.288 0-18.432-4.096-8.192-12.288-13.312-21.504-13.312z" fill="#0F0F0F" p-id="1386"></path><path d="M350.208 533.504c-19.456 8.192-43.008-1.024-51.2-20.48-8.192-19.456 1.024-43.008 20.48-51.2 19.456-8.192 43.008 1.024 51.2 20.48 9.216 19.456 0 43.008-20.48 51.2z" fill="#5CEA8B" p-id="1387"></path><path d="M334.848 546.816c-19.456 0-37.888-11.264-46.08-29.696-5.12-12.288-5.12-25.6-1.024-37.888 5.12-12.288 14.336-21.504 26.624-27.648 24.576-11.264 54.272 1.024 65.536 25.6 5.12 12.288 5.12 25.6 1.024 37.888-5.12 12.288-14.336 21.504-26.624 27.648-6.144 3.072-13.312 4.096-19.456 4.096z m15.36-13.312z m-15.36-64.512c-4.096 0-8.192 1.024-11.264 2.048-7.168 3.072-12.288 9.216-15.36 16.384-3.072 7.168-3.072 15.36 0 22.528 6.144 14.336 23.552 21.504 37.888 15.36 7.168-3.072 12.288-9.216 15.36-16.384s3.072-15.36 0-22.528c-5.12-11.264-15.36-17.408-26.624-17.408z" fill="#0F0F0F" p-id="1388"></path><path d="M174.08 576.512c-5.12-21.504 8.192-41.984 28.672-47.104 21.504-5.12 41.984 8.192 47.104 28.672 5.12 21.504-8.192 41.984-28.672 47.104-20.48 6.144-41.984-7.168-47.104-28.672z" fill="#5CEA8B" p-id="1389"></path><path d="M211.968 617.472c-9.216 0-17.408-2.048-25.6-7.168-11.264-7.168-19.456-17.408-22.528-30.72-3.072-13.312-1.024-26.624 6.144-37.888s17.408-19.456 30.72-22.528c13.312-3.072 26.624-1.024 37.888 6.144s19.456 17.408 22.528 30.72c3.072 13.312 1.024 26.624-6.144 37.888s-17.408 19.456-30.72 22.528c-4.096 0-8.192 1.024-12.288 1.024z m1.024-78.848c-2.048 0-5.12 0-7.168 1.024-7.168 2.048-14.336 6.144-18.432 13.312-4.096 6.144-5.12 14.336-3.072 21.504 2.048 7.168 6.144 14.336 13.312 18.432 6.144 4.096 14.336 5.12 21.504 3.072 7.168-2.048 14.336-6.144 18.432-13.312 4.096-6.144 5.12-14.336 3.072-21.504-2.048-7.168-6.144-14.336-13.312-18.432-4.096-3.072-9.216-4.096-14.336-4.096z" fill="#0F0F0F" p-id="1390"></path><path d="M208.896 707.584c-5.12-21.504 8.192-41.984 28.672-47.104 21.504-5.12 41.984 8.192 47.104 28.672 5.12 21.504-8.192 41.984-28.672 47.104-20.48 5.12-41.984-7.168-47.104-28.672z" fill="#5CEA8B" p-id="1391"></path><path d="M247.808 747.52c-22.528 0-43.008-15.36-48.128-37.888-6.144-26.624 10.24-53.248 36.864-59.392 26.624-6.144 53.248 10.24 59.392 36.864 3.072 13.312 1.024 26.624-6.144 37.888s-17.408 19.456-30.72 22.528h-11.264z m0-77.824c-2.048 0-4.096 0-7.168 1.024-15.36 4.096-25.6 19.456-21.504 34.816 4.096 15.36 19.456 25.6 34.816 21.504 7.168-2.048 14.336-6.144 18.432-13.312 4.096-6.144 5.12-14.336 3.072-21.504-3.072-14.336-15.36-22.528-27.648-22.528z" fill="#0F0F0F" p-id="1392"></path><path d="M942.08 216.064c4.096-13.312 2.048-28.672-6.144-40.96-15.36-23.552-46.08-30.72-69.632-16.384-7.168 4.096-12.288 10.24-16.384 17.408-15.36-8.192-34.816-8.192-51.2 2.048-23.552 15.36-30.72 46.08-16.384 69.632 15.36 23.552 46.08 30.72 69.632 16.384 7.168-4.096 12.288-10.24 16.384-17.408 7.168 4.096 16.384 6.144 24.576 6.144-4.096 13.312-2.048 28.672 6.144 40.96 0 1.024 1.024 1.024 1.024 2.048-8.192 1.024-16.384 3.072-23.552 7.168-18.432 11.264-26.624 32.768-22.528 52.224-9.216-3.072-20.48-1.024-29.696 4.096-17.408 11.264-22.528 33.792-11.264 51.2 11.264 17.408 33.792 22.528 51.2 11.264 11.264-7.168 17.408-19.456 17.408-31.744 15.36 7.168 33.792 7.168 49.152-3.072 23.552-15.36 30.72-46.08 16.384-69.632 0-1.024-1.024-1.024-1.024-2.048 8.192-1.024 16.384-3.072 23.552-7.168 23.552-15.36 30.72-46.08 16.384-69.632-10.24-14.336-26.624-22.528-44.032-22.528z" fill="#BCD152" p-id="1393"></path><path d="M845.824 439.296c-3.072 0-7.168 0-10.24-1.024-12.288-3.072-22.528-10.24-29.696-20.48s-9.216-23.552-6.144-35.84c3.072-12.288 10.24-22.528 20.48-29.696 7.168-4.096 15.36-7.168 23.552-7.168 1.024-20.48 11.264-38.912 28.672-49.152 4.096-3.072 8.192-5.12 13.312-6.144-3.072-8.192-4.096-17.408-4.096-27.648-3.072-1.024-6.144-1.024-9.216-2.048-4.096 5.12-9.216 9.216-14.336 13.312-13.312 8.192-29.696 11.264-46.08 8.192-15.36-4.096-29.696-13.312-37.888-26.624-8.192-13.312-11.264-29.696-8.192-46.08 4.096-16.384 13.312-29.696 26.624-37.888 16.384-10.24 35.84-12.288 53.248-6.144 4.096-5.12 9.216-9.216 14.336-13.312 28.672-17.408 66.56-9.216 83.968 19.456 7.168 11.264 10.24 24.576 9.216 37.888 16.384 3.072 30.72 13.312 39.936 27.648 8.192 13.312 11.264 29.696 8.192 46.08-4.096 16.384-13.312 29.696-26.624 37.888-4.096 3.072-8.192 5.12-13.312 6.144 4.096 11.264 5.12 23.552 2.048 35.84-4.096 16.384-13.312 29.696-26.624 37.888-14.336 9.216-30.72 11.264-46.08 8.192-3.072 10.24-10.24 20.48-20.48 26.624-7.168 1.024-16.384 4.096-24.576 4.096z m-1.024-74.752c-5.12 0-10.24 1.024-14.336 4.096-6.144 4.096-10.24 10.24-12.288 16.384-2.048 7.168 0 14.336 3.072 20.48 4.096 6.144 10.24 10.24 16.384 12.288 7.168 2.048 14.336 0 20.48-3.072 8.192-5.12 12.288-13.312 12.288-22.528 0-3.072 2.048-7.168 5.12-8.192 3.072-2.048 7.168-2.048 10.24 0 12.288 6.144 27.648 5.12 38.912-2.048 9.216-6.144 15.36-14.336 17.408-25.6 2.048-10.24 1.024-21.504-5.12-30.72l-1.024-1.024-1.024-1.024c-2.048-3.072-2.048-7.168-1.024-10.24 2.048-3.072 5.12-5.12 8.192-6.144 6.144 0 13.312-3.072 18.432-6.144 9.216-6.144 15.36-14.336 18.432-25.6 2.048-10.24 1.024-21.504-5.12-30.72-7.168-12.288-20.48-18.432-34.816-18.432-3.072 0-6.144-1.024-8.192-4.096-2.048-3.072-2.048-6.144-2.048-9.216 3.072-11.264 2.048-23.552-4.096-32.768-12.288-18.432-36.864-24.576-56.32-12.288-5.12 3.072-10.24 8.192-13.312 13.312-3.072 5.12-9.216 6.144-13.312 4.096-13.312-7.168-28.672-6.144-40.96 1.024-9.216 6.144-15.36 14.336-17.408 25.6s-1.024 21.504 5.12 30.72c6.144 9.216 14.336 15.36 25.6 17.408 10.24 2.048 21.504 1.024 30.72-5.12 5.12-3.072 10.24-8.192 13.312-13.312 3.072-5.12 9.216-6.144 13.312-4.096 6.144 3.072 12.288 5.12 19.456 5.12 3.072 0 6.144 1.024 8.192 4.096 2.048 3.072 2.048 6.144 2.048 9.216-3.072 11.264-2.048 23.552 4.096 32.768l1.024 1.024c2.048 3.072 3.072 7.168 1.024 10.24-2.048 3.072-4.096 6.144-8.192 6.144-7.168 0-13.312 2.048-18.432 6.144-14.336 9.216-21.504 25.6-18.432 41.984 1.024 3.072 0 7.168-3.072 9.216-3.072 2.048-6.144 3.072-9.216 2.048 0-1.024-2.048-1.024-5.12-1.024z" fill="#0F0F0F" p-id="1394"></path><path d="M730.112 420.864l108.544-99.328" fill="#FFFFFF" p-id="1395"></path><path d="M730.112 436.224c-4.096 0-8.192-2.048-11.264-5.12-6.144-6.144-5.12-16.384 1.024-21.504l108.544-99.328c6.144-6.144 16.384-5.12 21.504 1.024 6.144 6.144 5.12 16.384-1.024 21.504l-108.544 99.328c-3.072 3.072-7.168 4.096-10.24 4.096z" fill="#0F0F0F" p-id="1396"></path><path d="M869.376 262.144c1.024-7.168 0-14.336-2.048-20.48-8.192-27.648-37.888-43.008-65.536-34.816-27.648 8.192-43.008 37.888-34.816 65.536 1.024 3.072 2.048 6.144 4.096 9.216-20.48 4.096-34.816 23.552-31.744 45.056 3.072 21.504 23.552 35.84 45.056 32.768 14.336-2.048 25.6-12.288 30.72-25.6 10.24 16.384 28.672 25.6 48.128 22.528 26.624-4.096 44.032-28.672 39.936-55.296-3.072-18.432-16.384-33.792-33.792-38.912z" fill="#BCD152" p-id="1397"></path><path d="M778.24 370.688c-23.552 0-45.056-17.408-49.152-41.984-3.072-22.528 8.192-44.032 28.672-52.224-5.12-16.384-3.072-32.768 4.096-48.128 8.192-14.336 20.48-25.6 36.864-30.72s32.768-3.072 48.128 4.096c14.336 8.192 25.6 20.48 30.72 36.864 2.048 5.12 3.072 11.264 3.072 17.408 17.408 8.192 30.72 24.576 33.792 44.032 5.12 31.744-17.408 61.44-49.152 66.56-17.408 3.072-35.84-3.072-48.128-14.336-7.168 9.216-18.432 16.384-30.72 17.408-3.072 1.024-6.144 1.024-8.192 1.024zM817.152 215.04c-4.096 0-8.192 1.024-12.288 2.048-11.264 3.072-19.456 10.24-24.576 20.48s-6.144 21.504-3.072 31.744c1.024 2.048 2.048 5.12 3.072 7.168 2.048 3.072 2.048 6.144 0 9.216-1.024 3.072-4.096 5.12-7.168 6.144-15.36 3.072-25.6 17.408-23.552 32.768 2.048 15.36 17.408 26.624 32.768 24.576 10.24-2.048 19.456-9.216 22.528-19.456 1.024-4.096 5.12-6.144 8.192-7.168 4.096 0 8.192 1.024 10.24 5.12 8.192 13.312 22.528 19.456 37.888 17.408 20.48-3.072 34.816-22.528 31.744-43.008-2.048-14.336-13.312-26.624-26.624-30.72-5.12-1.024-8.192-6.144-7.168-11.264 1.024-6.144 0-11.264-2.048-16.384-3.072-10.24-10.24-19.456-20.48-24.576-6.144-2.048-12.288-4.096-19.456-4.096z" fill="#0F0F0F" p-id="1398"></path></svg>